<svg xmlns="http://www.w3.org/2000/svg" xmlns:xlink="http://www.w3.org/1999/xlink" contentStyleType="text/css" data-diagram-type="DESCRIPTION" height="1170px" preserveAspectRatio="none" style="width:1897px;height:1170px;background:#FFFFFF;" version="1.1" viewBox="0 0 1897 1170" width="1897px" zoomAndPan="magnify"><title>HumaCare Robot Architecture - Implementation View</title><defs/><g><g class="title" data-source-line="1"><text fill="#000000" font-family="sans-serif" font-size="14" font-weight="bold" lengthAdjust="spacing" textLength="420.54" x="731.387" y="27.9951">HumaCare Robot Architecture - Implementation View</text></g><!--cluster OS--><g class="cluster" data-entity="OS" data-source-line="11" data-uid="ent0002" id="cluster_OS"><path d="M1411.5,219.5969 L1531.1982,219.5969 A3.75,3.75 0 0 1 1533.6982,222.0969 L1540.6982,251.8938 L1650.5,251.8938 A2.5,2.5 0 0 1 1653,254.3938 L1653,490.6669 A2.5,2.5 0 0 1 1650.5,493.1669 L1411.5,493.1669 A2.5,2.5 0 0 1 1409,490.6669 L1409,222.0969 A2.5,2.5 0 0 1 1411.5,219.5969" fill="#FFFFE0" style="stroke:#000000;stroke-width:1.5;"/><line style="stroke:#000000;stroke-width:1.5;" x1="1409" x2="1540.6982" y1="251.8938" y2="251.8938"/><text fill="#000000" font-family="sans-serif" font-size="14" font-weight="bold" lengthAdjust="spacing" textLength="108.6982" x="1418" y="239.592">HumaCare OS</text></g><!--cluster AI--><g class="cluster" data-entity="AI" data-source-line="16" data-uid="ent0005" id="cluster_AI"><path d="M256.5,385.8769 L451.8174,385.8769 A3.75,3.75 0 0 1 454.3174,388.3769 L461.3174,418.1738 L626.5,418.1738 A2.5,2.5 0 0 1 629,420.6738 L629,664.5169 A2.5,2.5 0 0 1 626.5,667.0169 L256.5,667.0169 A2.5,2.5 0 0 1 254,664.5169 L254,388.3769 A2.5,2.5 0 0 1 256.5,385.8769" fill="#ADD8E6" style="stroke:#000000;stroke-width:1.5;"/><line style="stroke:#000000;stroke-width:1.5;" x1="254" x2="461.3174" y1="418.1738" y2="418.1738"/><text fill="#000000" font-family="sans-serif" font-size="14" font-weight="bold" lengthAdjust="spacing" textLength="184.3174" x="263" y="405.872">AI &amp; Cognitive Systems</text></g><!--cluster Sensory--><g class="cluster" data-entity="Sensory" data-source-line="22" data-uid="ent0009" id="cluster_Sensory"><path d="M310.5,53.2969 L456.5508,53.2969 A3.75,3.75 0 0 1 459.0508,55.7969 L466.0508,85.5938 L497.5,85.5938 A2.5,2.5 0 0 1 500,88.0938 L500,158.0969 A2.5,2.5 0 0 1 497.5,160.5969 L310.5,160.5969 A2.5,2.5 0 0 1 308,158.0969 L308,55.7969 A2.5,2.5 0 0 1 310.5,53.2969" fill="#90EE90" style="stroke:#000000;stroke-width:1.5;"/><line style="stroke:#000000;stroke-width:1.5;" x1="308" x2="466.0508" y1="85.5938" y2="85.5938"/><text fill="#000000" font-family="sans-serif" font-size="14" font-weight="bold" lengthAdjust="spacing" textLength="135.0508" x="317" y="73.292">Sensory Systems</text></g><!--cluster Mechanical--><g class="cluster" data-entity="Mechanical" data-source-line="26" data-uid="ent0011" id="cluster_Mechanical"><path d="M655.5,385.8769 L826.4746,385.8769 A3.75,3.75 0 0 1 828.9746,388.3769 L835.9746,418.1738 L880.5,418.1738 A2.5,2.5 0 0 1 883,420.6738 L883,664.5169 A2.5,2.5 0 0 1 880.5,667.0169 L655.5,667.0169 A2.5,2.5 0 0 1 653,664.5169 L653,388.3769 A2.5,2.5 0 0 1 655.5,385.8769" fill="#FFB6C1" style="stroke:#000000;stroke-width:1.5;"/><line style="stroke:#000000;stroke-width:1.5;" x1="653" x2="835.9746" y1="418.1738" y2="418.1738"/><text fill="#000000" font-family="sans-serif" font-size="14" font-weight="bold" lengthAdjust="spacing" textLength="159.9746" x="662" y="405.872">Mechanical Systems</text></g><!--cluster Power--><g class="cluster" data-entity="Power" data-source-line="31" data-uid="ent0014" id="cluster_Power"><path d="M909.5,385.8769 L1077.6377,385.8769 A3.75,3.75 0 0 1 1080.1377,388.3769 L1087.1377,418.1738 L1172.5,418.1738 A2.5,2.5 0 0 1 1175,420.6738 L1175,490.6669 A2.5,2.5 0 0 1 1172.5,493.1669 L909.5,493.1669 A2.5,2.5 0 0 1 907,490.6669 L907,388.3769 A2.5,2.5 0 0 1 909.5,385.8769" fill="#D3D3D3" style="stroke:#000000;stroke-width:1.5;"/><line style="stroke:#000000;stroke-width:1.5;" x1="907" x2="1087.1377" y1="418.1738" y2="418.1738"/><text fill="#000000" font-family="sans-serif" font-size="14" font-weight="bold" lengthAdjust="spacing" textLength="157.1377" x="916" y="405.872">Power Management</text></g><!--cluster Comm--><g class="cluster" data-entity="Comm" data-source-line="35" data-uid="ent0016" id="cluster_Comm"><path d="M1201.5,385.8769 L1335.123,385.8769 A3.75,3.75 0 0 1 1337.623,388.3769 L1344.623,418.1738 L1382.5,418.1738 A2.5,2.5 0 0 1 1385,420.6738 L1385,490.6669 A2.5,2.5 0 0 1 1382.5,493.1669 L1201.5,493.1669 A2.5,2.5 0 0 1 1199,490.6669 L1199,388.3769 A2.5,2.5 0 0 1 1201.5,385.8769" fill="#E0FFFF" style="stroke:#000000;stroke-width:1.5;"/><line style="stroke:#000000;stroke-width:1.5;" x1="1199" x2="1344.623" y1="418.1738" y2="418.1738"/><text fill="#000000" font-family="sans-serif" font-size="14" font-weight="bold" lengthAdjust="spacing" textLength="122.623" x="1208" y="405.872">Communication</text></g><!--cluster UserInterface--><g class="cluster" data-entity="UserInterface" data-source-line="39" data-uid="ent0018" id="cluster_UserInterface"><path d="M8.5,559.7269 L132.0742,559.7269 A3.75,3.75 0 0 1 134.5742,562.2269 L141.5742,592.0238 L213.5,592.0238 A2.5,2.5 0 0 1 216,594.5238 L216,664.5169 A2.5,2.5 0 0 1 213.5,667.0169 L8.5,667.0169 A2.5,2.5 0 0 1 6,664.5169 L6,562.2269 A2.5,2.5 0 0 1 8.5,559.7269" fill="#FFCC99" style="stroke:#000000;stroke-width:1.5;"/><line style="stroke:#000000;stroke-width:1.5;" x1="6" x2="141.5742" y1="592.0238" y2="592.0238"/><text fill="#000000" font-family="sans-serif" font-size="14" font-weight="bold" lengthAdjust="spacing" textLength="112.5742" x="15" y="579.722">User Interface</text></g><!--cluster ExternalSys--><g class="cluster" data-entity="ExternalSys" data-source-line="43" data-uid="ent0020" id="cluster_ExternalSys"><path d="M1099.5,559.7269 L1270.085,559.7269 A3.75,3.75 0 0 1 1272.585,562.2269 L1279.585,592.0238 L1279.5,592.0238 A2.5,2.5 0 0 1 1282,594.5238 L1282,664.5169 A2.5,2.5 0 0 1 1279.5,667.0169 L1099.5,667.0169 A2.5,2.5 0 0 1 1097,664.5169 L1097,562.2269 A2.5,2.5 0 0 1 1099.5,559.7269" fill="#D0D0D0" style="stroke:#000000;stroke-width:1.5;"/><line style="stroke:#000000;stroke-width:1.5;" x1="1097" x2="1279.585" y1="592.0238" y2="592.0238"/><text fill="#000000" font-family="sans-serif" font-size="14" font-weight="bold" lengthAdjust="spacing" textLength="159.585" x="1106" y="579.722">External Integration</text></g><!--cluster CloudServices--><g class="cluster" data-entity="CloudServices" data-source-line="47" data-uid="ent0022" id="cluster_CloudServices"><path d="M1111.3818,742.8164 C1115.3064,734.6067 1123.3828,733.6764 1128.3876,741.6836 C1132.8207,735.743 1137.8639,735.4307 1142.1028,741.8983 C1147.3967,732.709 1153.6329,734.4443 1159.3213,741.4795 C1163.6614,732.827 1168.3068,732.8583 1174.1911,740.0283 C1178.8005,732.0869 1185.434,731.3516 1190.1515,739.9238 C1194.8359,731.1794 1200.036,731.8136 1205.9155,738.72 C1211.3136,731.9581 1216.8262,733.4338 1220.2916,740.7005 C1224.8564,732.0694 1231.1338,731.8187 1236.5446,739.8766 C1241.0105,733.1351 1247.3704,733.8118 1251.6629,740.0782 C1257.6675,731.9715 1262.7658,732.4756 1267.8529,740.9728 C1272.8246,733.4825 1279.3669,733.7144 1283.7558,741.5766 C1293.274,732.4209 1301.3299,737.8901 1304,748.5669 C1305.1174,748.5703 1305.6361,749.2735 1305.2254,750.3356 C1316.0835,754.04 1317.5566,763.0631 1308.1525,769.8125 C1317.6921,772.288 1318.7643,781.2157 1312.1019,787.3416 C1320.9638,795.2694 1320.4112,805.2787 1307.6802,808.7458 C1317.3111,822.053 1312.1675,830.5398 1297,832.8669 C1298.724,832.7531 1299.6782,833.6629 1299.1605,835.435 C1294.0229,843.0306 1288.7861,841.989 1283.3842,835.7361 C1279.0162,843.3107 1273.0703,843.2118 1268.6725,835.7653 C1262.7486,843.779 1256.9671,845.1872 1250.6134,836.2224 C1247.2041,842.8459 1241.6518,844.3454 1236.7917,837.7379 C1232.2322,844.5824 1225.9028,844.699 1221.2247,837.873 C1216.5372,844.9305 1210.5723,843.2407 1206.6399,837.0422 C1200.7694,843.8857 1195.1995,845.0258 1189.7217,836.607 C1184.9482,844.3259 1180.3139,843.0876 1175.5037,836.6439 C1169.9171,843.0383 1163.6208,843.5492 1159.2669,835.2791 C1154.5369,843.2614 1147.222,843.7286 1142.0377,835.7701 C1137.0663,841.6732 1131.709,840.2479 1128.2121,834.0812 C1117.0257,842.7052 1107.9232,838.6515 1104,825.8669 C1105.6673,825.1742 1106.6425,825.851 1106.5184,827.6659 C1093.8959,823.2872 1093.4846,816.6073 1100.6675,806.7012 C1090.279,803.4799 1090.3066,795.3434 1096.7649,788.5081 C1089.2931,780.9888 1089.6616,773.9511 1099.6734,769.0444 C1087.5843,755.6978 1093.377,742.6656 1111,741.5669 C1111.7143,741.7991 1111.7764,742.2454 1111.3818,742.8164" fill="#E0E0FF" style="stroke:#181818;stroke-width:1;"/><text fill="#000000" font-family="sans-serif" font-size="14" font-weight="bold" lengthAdjust="spacing" textLength="116.0879" x="1145.9561" y="764.562">Cloud Services</text></g><!--entity CoreController--><g class="entity" data-entity="CoreController" data-source-line="12" data-uid="ent0003" id="entity_CoreController"><rect fill="#F1F1F1" height="46.2969" rx="2.5" ry="2.5" style="stroke:#181818;stroke-width:0.5;" width="149.9297" x="1425.04" y="264.5969"/><text fill="#000000" font-family="sans-serif" font-size="14" lengthAdjust="spacing" textLength="119.9297" x="1440.04" y="292.592">Real-Time Kernel</text></g><!--entity SystemServices--><g class="entity" data-entity="SystemServices" data-source-line="13" data-uid="ent0004" id="entity_SystemServices"><rect fill="#F1F1F1" height="46.2969" rx="2.5" ry="2.5" style="stroke:#181818;stroke-width:0.5;" width="211.4805" x="1425.26" y="430.8769"/><text fill="#000000" font-family="sans-serif" font-size="14" lengthAdjust="spacing" textLength="181.4805" x="1440.26" y="458.872">Health Monitoring Service</text></g><!--entity Language--><g class="entity" data-entity="Language" data-source-line="17" data-uid="ent0006" id="entity_Language"><rect fill="#F1F1F1" height="46.2969" rx="2.5" ry="2.5" style="stroke:#181818;stroke-width:0.5;" width="109.1465" x="503.43" y="430.8769"/><text fill="#000000" font-family="sans-serif" font-size="14" lengthAdjust="spacing" textLength="79.1465" x="518.43" y="458.872">NLP Engine</text></g><!--entity Vision--><g class="entity" data-entity="Vision" data-source-line="18" data-uid="ent0007" id="entity_Vision"><rect fill="#F1F1F1" height="46.2969" rx="2.5" ry="2.5" style="stroke:#181818;stroke-width:0.5;" width="198.5674" x="269.72" y="430.8769"/><text fill="#000000" font-family="sans-serif" font-size="14" lengthAdjust="spacing" textLength="168.5674" x="284.72" y="458.872">Computer Vision Engine</text></g><!--entity Learning--><g class="entity" data-entity="Learning" data-source-line="19" data-uid="ent0008" id="entity_Learning"><rect fill="#F1F1F1" height="46.2969" rx="2.5" ry="2.5" style="stroke:#181818;stroke-width:0.5;" width="171.1758" x="432.41" y="604.7269"/><text fill="#000000" font-family="sans-serif" font-size="14" lengthAdjust="spacing" textLength="141.1758" x="447.41" y="632.722">ML Training Pipeline</text></g><!--entity Sensors--><g class="entity" data-entity="Sensors" data-source-line="23" data-uid="ent0010" id="entity_Sensors"><rect fill="#F1F1F1" height="46.2969" rx="2.5" ry="2.5" style="stroke:#181818;stroke-width:0.5;" width="160.7236" x="323.64" y="98.2969"/><text fill="#000000" font-family="sans-serif" font-size="14" lengthAdjust="spacing" textLength="130.7236" x="338.64" y="126.292">Sensor Fusion Hub</text></g><!--entity Movement--><g class="entity" data-entity="Movement" data-source-line="27" data-uid="ent0012" id="entity_Movement"><rect fill="#F1F1F1" height="46.2969" rx="2.5" ry="2.5" style="stroke:#181818;stroke-width:0.5;" width="198.875" x="668.56" y="430.8769"/><text fill="#000000" font-family="sans-serif" font-size="14" lengthAdjust="spacing" textLength="168.875" x="683.56" y="458.872">Motion Planning System</text></g><!--entity MotorDrivers--><g class="entity" data-entity="MotorDrivers" data-source-line="28" data-uid="ent0013" id="entity_MotorDrivers"><rect fill="#F1F1F1" height="46.2969" rx="2.5" ry="2.5" style="stroke:#181818;stroke-width:0.5;" width="151.0234" x="692.49" y="604.7269"/><text fill="#000000" font-family="sans-serif" font-size="14" lengthAdjust="spacing" textLength="121.0234" x="707.49" y="632.722">Servo Controllers</text></g><!--entity Energy--><g class="entity" data-entity="Energy" data-source-line="32" data-uid="ent0015" id="entity_Energy"><rect fill="#F1F1F1" height="46.2969" rx="2.5" ry="2.5" style="stroke:#181818;stroke-width:0.5;" width="235.1465" x="923.43" y="430.8769"/><text fill="#000000" font-family="sans-serif" font-size="14" lengthAdjust="spacing" textLength="205.1465" x="938.43" y="458.872">Battery Management System</text></g><!--entity Connectivity--><g class="entity" data-entity="Connectivity" data-source-line="36" data-uid="ent0017" id="entity_Connectivity"><rect fill="#F1F1F1" height="46.2969" rx="2.5" ry="2.5" style="stroke:#181818;stroke-width:0.5;" width="153.3135" x="1215.34" y="430.8769"/><text fill="#000000" font-family="sans-serif" font-size="14" lengthAdjust="spacing" textLength="123.3135" x="1230.34" y="458.872">Networking Stack</text></g><!--entity UI--><g class="entity" data-entity="UI" data-source-line="40" data-uid="ent0019" id="entity_UI"><rect fill="#F1F1F1" height="46.2969" rx="2.5" ry="2.5" style="stroke:#181818;stroke-width:0.5;" width="178.4014" x="21.8" y="604.7269"/><text fill="#000000" font-family="sans-serif" font-size="14" lengthAdjust="spacing" textLength="148.4014" x="36.8" y="632.722">Multi-Modal Interface</text></g><!--entity External--><g class="entity" data-entity="External" data-source-line="44" data-uid="ent0021" id="entity_External"><rect fill="#F1F1F1" height="46.2969" rx="2.5" ry="2.5" style="stroke:#181818;stroke-width:0.5;" width="118.4434" x="1144.78" y="604.7269"/><text fill="#000000" font-family="sans-serif" font-size="14" lengthAdjust="spacing" textLength="88.4434" x="1159.78" y="632.722">API Gateway</text></g><!--entity Cloud--><g class="entity" data-entity="Cloud" data-source-line="48" data-uid="ent0023" id="entity_Cloud"><rect fill="#F1F1F1" height="46.2969" rx="2.5" ry="2.5" style="stroke:#181818;stroke-width:0.5;" width="184.0752" x="1111.96" y="778.5669"/><text fill="#000000" font-family="sans-serif" font-size="14" lengthAdjust="spacing" textLength="154.0752" x="1126.96" y="806.562">Azure Health Services</text></g><g class="entity" data-entity="GMN41" data-source-line="73" data-uid="ent0042" id="entity_GMN41"><path d="M1671.69,421.3269 L1671.69,486.7253 L1890.314,486.7253 L1890.314,431.3269 L1880.314,421.3269 L1671.69,421.3269" fill="#FFFFE0" style="stroke:#808080;stroke-width:0.5;"/><path d="M1880.314,421.3269 L1880.314,431.3269 L1890.314,431.3269 L1880.314,421.3269" fill="#FFFFE0" style="stroke:#808080;stroke-width:1;"/><text fill="#000000" font-family="sans-serif" font-size="13" lengthAdjust="spacing" textLength="141.4893" x="1682.69" y="443.3938">RTOS: FreeRTOS/QNX</text><text fill="#000000" font-family="sans-serif" font-size="13" lengthAdjust="spacing" textLength="183.4917" x="1682.69" y="458.5266">Ensuring real-time response</text><text fill="#000000" font-family="sans-serif" font-size="13" lengthAdjust="spacing" textLength="129.5557" x="1682.69" y="473.6594">for critical functions</text></g><g class="entity" data-entity="GMN44" data-source-line="79" data-uid="ent0045" id="entity_GMN44"><path d="M130.4,262.6069 L130.4,312.8725 A0,0 0 0 0 130.4,312.8725 L333.5992,312.8725 A0,0 0 0 0 333.5992,312.8725 L333.5992,272.6069 L323.5992,262.6069 L261.51,262.6069 L380.44,144.9469 L253.51,262.6069 L130.4,262.6069 A0,0 0 0 0 130.4,262.6069" fill="#FFFFE0" style="stroke:#808080;stroke-width:0.5;"/><path d="M323.5992,262.6069 L323.5992,272.6069 L333.5992,272.6069 L323.5992,262.6069" fill="#FFFFE0" style="stroke:#808080;stroke-width:0.5;"/><text fill="#000000" font-family="sans-serif" font-size="13" lengthAdjust="spacing" textLength="172.1992" x="141.4" y="284.6738">IMU, Camera, Microphone,</text><text fill="#000000" font-family="sans-serif" font-size="13" lengthAdjust="spacing" textLength="132.6279" x="141.4" y="299.8066">Touch, Temperature</text></g><g class="entity" data-entity="GMN47" data-source-line="84" data-uid="ent0048" id="entity_GMN47"><path d="M932.51,595.1669 L932.51,660.5653 A0,0 0 0 0 932.51,660.5653 L1081.4939,660.5653 A0,0 0 0 0 1081.4939,660.5653 L1081.4939,605.1669 L1071.4939,595.1669 L1017.36,595.1669 L1036.56,477.4869 L1009.36,595.1669 L932.51,595.1669 A0,0 0 0 0 932.51,595.1669" fill="#FFFFE0" style="stroke:#808080;stroke-width:0.5;"/><path d="M1071.4939,595.1669 L1071.4939,605.1669 L1081.4939,605.1669 L1071.4939,595.1669" fill="#FFFFE0" style="stroke:#808080;stroke-width:0.5;"/><text fill="#000000" font-family="sans-serif" font-size="13" lengthAdjust="spacing" textLength="110.4492" x="943.51" y="617.2338">Li-ion monitoring</text><text fill="#000000" font-family="sans-serif" font-size="13" lengthAdjust="spacing" textLength="100.5088" x="943.51" y="632.3666">Smart charging</text><text fill="#000000" font-family="sans-serif" font-size="13" lengthAdjust="spacing" textLength="117.9839" x="943.51" y="647.4994">Power distribution</text></g><!--link CoreController to SystemServices--><g class="link" data-entity-1="CoreController" data-entity-2="SystemServices" data-source-line="52" data-uid="lnk24" id="link_CoreController_SystemServices"><path d="M1504.25,311.2369 C1510.17,342.6069 1519.7273,393.2709 1525.6473,424.6409" fill="none" id="CoreController-to-SystemServices" style="stroke:#181818;stroke-width:1;"/><polygon fill="#181818" points="1526.76,430.5369,1529.0216,420.9512,1525.8328,425.6236,1521.1604,422.4347,1526.76,430.5369" style="stroke:#181818;stroke-width:1;"/><text fill="#000000" font-family="sans-serif" font-size="13" lengthAdjust="spacing" textLength="74.5659" x="1520" y="360.9438">health data</text></g><!--link CoreController to Language--><g class="link" data-entity-1="CoreController" data-entity-2="Language" data-source-line="53" data-uid="lnk25" id="link_CoreController_Language"><path d="M1418.6265,292.1356 C1293.7065,297.9456 1042.07,312.4569 826,342.8769 C748.32,353.8169 724.16,344.8569 653,377.8769 C625.15,390.7969 602.5317,409.3068 584.4817,426.3568" fill="none" id="CoreController-Language" style="stroke:#181818;stroke-width:1;"/><polygon fill="#181818" points="1424.62,291.8569,1415.4439,288.2793,1419.6254,292.0892,1415.8156,296.2707,1424.62,291.8569" style="stroke:#181818;stroke-width:1;"/><polygon fill="#181818" points="580.12,430.4769,589.4093,427.2046,583.7548,427.0435,583.9159,421.3889,580.12,430.4769" style="stroke:#181818;stroke-width:1;"/><text fill="#000000" font-family="sans-serif" font-size="13" lengthAdjust="spacing" textLength="91.6094" x="832" y="360.9438">linguistic data</text></g><!--link CoreController to Vision--><g class="link" data-entity-1="CoreController" data-entity-2="Vision" data-source-line="54" data-uid="lnk26" id="link_CoreController_Vision"><path d="M1418.7318,290.5536 C1229.4218,295.1836 743.22,309.9569 583,342.8769 C538.11,352.0969 527.1,357.5869 486,377.8769 C455.26,393.0469 427.544,411.0741 404.564,427.1741" fill="none" id="CoreController-Vision" style="stroke:#181818;stroke-width:1;"/><polygon fill="#181818" points="1424.73,290.4069,1415.6349,286.6281,1419.7315,290.5291,1415.8305,294.6257,1424.73,290.4069" style="stroke:#181818;stroke-width:1;"/><polygon fill="#181818" points="399.65,430.6169,409.3162,428.7287,403.745,427.7479,404.7258,422.1767,399.65,430.6169" style="stroke:#181818;stroke-width:1;"/><text fill="#000000" font-family="sans-serif" font-size="13" lengthAdjust="spacing" textLength="71.3096" x="589" y="360.9438">visual data</text></g><!--link CoreController to Movement--><g class="link" data-entity-1="CoreController" data-entity-2="Movement" data-source-line="55" data-uid="lnk27" id="link_CoreController_Movement"><path d="M1418.6322,289.4305 C1303.1722,292.5805 1083.38,307.9569 907,377.8769 C870.53,392.3269 836.5796,411.0076 809.1696,427.3976" fill="none" id="CoreController-Movement" style="stroke:#181818;stroke-width:1;"/><polygon fill="#181818" points="1424.63,289.2669,1415.5243,285.5138,1419.6319,289.4032,1415.7424,293.5108,1424.63,289.2669" style="stroke:#181818;stroke-width:1;"/><polygon fill="#181818" points="804.02,430.4769,813.7972,429.2911,808.3113,427.9108,809.6916,422.425,804.02,430.4769" style="stroke:#181818;stroke-width:1;"/><text fill="#000000" font-family="sans-serif" font-size="13" lengthAdjust="spacing" textLength="146.0977" x="1005" y="360.9438">movement commands</text></g><!--link CoreController to Energy--><g class="link" data-entity-1="CoreController" data-entity-2="Energy" data-source-line="56" data-uid="lnk28" id="link_CoreController_Energy"><path d="M1418.878,303.341 C1373.378,312.501 1320.47,325.0369 1270,342.8769 C1201.16,367.2069 1130.8865,403.2421 1086.0765,427.7021" fill="none" id="CoreController-Energy" style="stroke:#181818;stroke-width:1;"/><polygon fill="#181818" points="1424.76,302.1569,1415.1476,300.0118,1419.8583,303.1437,1416.7265,307.8544,1424.76,302.1569" style="stroke:#181818;stroke-width:1;"/><polygon fill="#181818" points="1080.81,430.5769,1090.6262,429.7757,1085.1987,428.1812,1086.7932,422.7538,1080.81,430.5769" style="stroke:#181818;stroke-width:1;"/><text fill="#000000" font-family="sans-serif" font-size="13" lengthAdjust="spacing" textLength="84.2588" x="1276" y="360.9438">power status</text></g><!--link CoreController to Connectivity--><g class="link" data-entity-1="CoreController" data-entity-2="Connectivity" data-source-line="57" data-uid="lnk29" id="link_CoreController_Connectivity"><path d="M1449.2273,314.0601 C1432.7273,323.0201 1419.59,331.1369 1404,342.8769 C1368.48,369.6069 1336.8048,402.498 1315.5548,426.098" fill="none" id="CoreController-Connectivity" style="stroke:#181818;stroke-width:1;"/><polygon fill="#181818" points="1454.5,311.1969,1444.6821,311.9766,1450.1061,313.5829,1448.4997,319.0069,1454.5,311.1969" style="stroke:#181818;stroke-width:1;"/><polygon fill="#181818" points="1311.54,430.5569,1320.5348,426.5452,1314.8857,426.8412,1314.5897,421.1921,1311.54,430.5569" style="stroke:#181818;stroke-width:1;"/><text fill="#000000" font-family="sans-serif" font-size="13" lengthAdjust="spacing" textLength="86.2075" x="1410" y="360.9438">network data</text></g><!--link Sensors to Vision--><g class="link" data-entity-1="Sensors" data-entity-2="Vision" data-source-line="60" data-uid="lnk30" id="link_Sensors_Vision"><path d="M401.62,144.9069 C395.24,205.2169 378.4019,364.2202 372.0119,424.5602" fill="none" id="Sensors-to-Vision" style="stroke:#181818;stroke-width:1;"/><polygon fill="#181818" points="371.38,430.5269,376.3056,421.9982,371.9066,425.5547,368.35,421.1557,371.38,430.5269" style="stroke:#181818;stroke-width:1;"/><text fill="#000000" font-family="sans-serif" font-size="13" lengthAdjust="spacing" textLength="82.0435" x="401" y="292.3038">camera feed</text></g><!--link Sensors to CoreController--><g class="link" data-entity-1="Sensors" data-entity-2="CoreController" data-source-line="61" data-uid="lnk31" id="link_Sensors_CoreController"><path d="M484.59,134.5269 C689.13,165.1869 1220.2563,244.8073 1418.8363,274.5773" fill="none" id="Sensors-to-CoreController" style="stroke:#181818;stroke-width:1;"/><polygon fill="#181818" points="1424.77,275.4669,1416.4625,270.1768,1419.8253,274.7256,1415.2764,278.0884,1424.77,275.4669" style="stroke:#181818;stroke-width:1;"/><text fill="#000000" font-family="sans-serif" font-size="13" lengthAdjust="spacing" textLength="103.6509" x="925" y="194.6638">sensor readings</text></g><!--link Language to Learning--><g class="link" data-entity-1="Language" data-entity-2="Learning" data-source-line="62" data-uid="lnk32" id="link_Language_Learning"><path d="M551.4093,483.3305 C543.7393,516.2705 532.2607,565.6132 524.5907,598.5532" fill="none" id="Language-Learning" style="stroke:#181818;stroke-width:1;"/><polygon fill="#181818" points="552.77,477.4869,546.8332,485.3453,551.6361,482.3566,554.6248,487.1595,552.77,477.4869" style="stroke:#181818;stroke-width:1;"/><polygon fill="#181818" points="523.23,604.3969,529.1668,596.5385,524.3639,599.5271,521.3752,594.7242,523.23,604.3969" style="stroke:#181818;stroke-width:1;"/><text fill="#000000" font-family="sans-serif" font-size="13" lengthAdjust="spacing" textLength="83.7764" x="549" y="534.7938">training data</text></g><!--link Vision to Learning--><g class="link" data-entity-1="Vision" data-entity-2="Learning" data-source-line="63" data-uid="lnk33" id="link_Vision_Learning"><path d="M382.5857,482.7818 C392.2357,501.5318 404.71,523.1069 422,543.7269 C441.27,566.6969 462.4275,585.0387 482.4575,600.6487" fill="none" id="Vision-Learning" style="stroke:#181818;stroke-width:1;"/><polygon fill="#181818" points="379.84,477.4469,380.4019,487.2797,382.1281,481.8926,387.5151,483.6188,379.84,477.4469" style="stroke:#181818;stroke-width:1;"/><polygon fill="#181818" points="487.19,604.3369,482.55,595.6495,483.2462,601.2634,477.6324,601.9596,487.19,604.3369" style="stroke:#181818;stroke-width:1;"/><text fill="#000000" font-family="sans-serif" font-size="13" lengthAdjust="spacing" textLength="96.7954" x="428" y="534.7938">visual patterns</text></g><!--link Movement to MotorDrivers--><g class="link" data-entity-1="Movement" data-entity-2="MotorDrivers" data-source-line="64" data-uid="lnk34" id="link_Movement_MotorDrivers"><path d="M768,477.4869 C768,510.4269 768,565.4569 768,598.3969" fill="none" id="Movement-to-MotorDrivers" style="stroke:#181818;stroke-width:1;"/><polygon fill="#181818" points="768,604.3969,772,595.3969,768,599.3969,764,595.3969,768,604.3969" style="stroke:#181818;stroke-width:1;"/><text fill="#000000" font-family="sans-serif" font-size="13" lengthAdjust="spacing" textLength="81.269" x="774" y="534.7938">PWM signals</text></g><!--link Connectivity to External--><g class="link" data-entity-1="Connectivity" data-entity-2="External" data-source-line="65" data-uid="lnk35" id="link_Connectivity_External"><path d="M1266.5116,482.1646 C1256.8016,493.2746 1249.76,502.7369 1242,516.7269 C1226.2,545.1969 1216.7452,575.6187 1210.7952,598.5787" fill="none" id="Connectivity-External" style="stroke:#181818;stroke-width:1;"/><polygon fill="#181818" points="1270.46,477.6469,1261.5255,481.7912,1267.1696,481.4116,1267.5492,487.0558,1270.46,477.6469" style="stroke:#181818;stroke-width:1;"/><polygon fill="#181818" points="1209.29,604.3869,1215.4198,596.6781,1210.5443,599.5468,1207.6756,594.6712,1209.29,604.3869" style="stroke:#181818;stroke-width:1;"/><text fill="#000000" font-family="sans-serif" font-size="13" lengthAdjust="spacing" textLength="53.8091" x="1248" y="534.7938">API calls</text></g><!--link Connectivity to Cloud--><g class="link" data-entity-1="Connectivity" data-entity-2="Cloud" data-source-line="66" data-uid="lnk36" id="link_Connectivity_Cloud"><path d="M1302.6594,483.1645 C1306.6694,494.7045 1309,503.4269 1311,516.7269 C1321.04,583.4369 1318.61,653.8969 1287,717.5669 C1274.94,741.8669 1257.6331,759.5445 1239.3431,774.5945" fill="none" id="Connectivity-Cloud" style="stroke:#181818;stroke-width:1;"/><polygon fill="#181818" points="1300.69,477.4969,1299.8657,487.3112,1302.3312,482.2199,1307.4225,484.6853,1300.69,477.4969" style="stroke:#181818;stroke-width:1;"/><polygon fill="#181818" points="1234.71,778.4069,1244.2013,775.7771,1238.5709,775.2299,1239.1181,769.5996,1234.71,778.4069" style="stroke:#181818;stroke-width:1;"/><text fill="#000000" font-family="sans-serif" font-size="13" lengthAdjust="spacing" textLength="99.436" x="1322" y="632.4338">encrypted data</text></g><!--link Language to UI--><g class="link" data-entity-1="Language" data-entity-2="UI" data-source-line="67" data-uid="lnk37" id="link_Language_UI"><path d="M524.9626,480.9691 C512.2826,489.8891 501.59,495.8169 486,501.1669 C414.24,525.7969 388.66,494.8669 316,516.7269 C250.42,536.4469 186.7936,574.9957 147.9236,601.0557" fill="none" id="Language-UI" style="stroke:#181818;stroke-width:1;"/><polygon fill="#181818" points="529.87,477.5169,520.2075,479.4236,525.7805,480.3937,524.8104,485.9668,529.87,477.5169" style="stroke:#181818;stroke-width:1;"/><polygon fill="#181818" points="142.94,604.3969,152.6429,602.7075,147.093,601.6125,148.1879,596.0627,142.94,604.3969" style="stroke:#181818;stroke-width:1;"/><text fill="#000000" font-family="sans-serif" font-size="13" lengthAdjust="spacing" textLength="68.9863" x="322" y="534.7938">speech I/O</text></g><!--link Vision to UI--><g class="link" data-entity-1="Vision" data-entity-2="UI" data-source-line="68" data-uid="lnk38" id="link_Vision_UI"><path d="M263.4778,465.1228 C194.0278,473.9428 115.98,489.2669 94,516.7269 C74.05,541.6469 84.2845,574.7873 95.9245,599.0473" fill="none" id="Vision-UI" style="stroke:#181818;stroke-width:1;"/><polygon fill="#181818" points="269.43,464.3669,259.9978,461.5326,264.4698,464.9968,261.0057,469.4689,269.43,464.3669" style="stroke:#181818;stroke-width:1;"/><polygon fill="#181818" points="98.52,604.4569,98.2331,594.6122,96.3571,599.9489,91.0204,598.0729,98.52,604.4569" style="stroke:#181818;stroke-width:1;"/><text fill="#000000" font-family="sans-serif" font-size="13" lengthAdjust="spacing" textLength="101.7466" x="100" y="534.7938">visual feedback</text></g><!--link External to Cloud--><g class="link" data-entity-1="External" data-entity-2="Cloud" data-source-line="69" data-uid="lnk39" id="link_External_Cloud"><path d="M1204,657.3369 C1204,690.2669 1204,739.3069 1204,772.2469" fill="none" id="External-Cloud" style="stroke:#181818;stroke-width:1;"/><polygon fill="#181818" points="1204,651.3369,1200,660.3369,1204,656.3369,1208,660.3369,1204,651.3369" style="stroke:#181818;stroke-width:1;"/><polygon fill="#181818" points="1204,778.2469,1208,769.2469,1204,773.2469,1200,769.2469,1204,778.2469" style="stroke:#181818;stroke-width:1;"/><text fill="#000000" font-family="sans-serif" font-size="13" lengthAdjust="spacing" textLength="63.502" x="1210" y="708.6338">telemetry</text></g><!--link Learning to Cloud--><g class="link" data-entity-1="Learning" data-entity-2="Cloud" data-source-line="70" data-uid="lnk40" id="link_Learning_Cloud"><path d="M585.4053,653.4729 C608.2553,661.4429 628.82,668.1469 653,675.0169 C812.5,720.3369 995.6577,759.4242 1105.7277,781.5542" fill="none" id="Learning-Cloud" style="stroke:#181818;stroke-width:1;"/><polygon fill="#181818" points="579.74,651.4969,586.9206,658.2378,584.4611,653.1436,589.5553,650.6841,579.74,651.4969" style="stroke:#181818;stroke-width:1;"/><polygon fill="#181818" points="1111.61,782.7369,1103.575,777.0414,1106.7081,781.7513,1101.9981,784.8844,1111.61,782.7369" style="stroke:#181818;stroke-width:1;"/><text fill="#000000" font-family="sans-serif" font-size="13" lengthAdjust="spacing" textLength="97.189" x="810" y="708.6338">model updates</text></g><!--link CoreController to GMN41--><g class="link" data-entity-1="CoreController" data-entity-2="GMN41" data-source-line="73" data-uid="lnk43" id="link_CoreController_GMN41"><path d="M1547.6,311.2869 C1566.61,320.6369 1588.57,331.8569 1608,342.8769 C1651.52,367.5469 1699.38,398.3169 1733.71,421.0569" fill="none" id="CoreController-GMN41" style="stroke:#181818;stroke-width:1;stroke-dasharray:7.0,7.0;"/></g><g class="legend" data-source-line="89"><rect fill="none" height="286.9688" rx="7.5" ry="7.5" style="stroke:#000000;stroke-width:1;" width="271.1709" x="1600.1431" y="863.1872"/><text fill="#000000" font-family="sans-serif" font-size="14" font-weight="bold" lengthAdjust="spacing" textLength="90.2412" x="1620.0171" y="893.1823">Component</text><text fill="#000000" font-family="sans-serif" font-size="14" font-weight="bold" lengthAdjust="spacing" textLength="90.5488" x="1730.0064" y="893.1823">Description</text><rect fill="#FFFFE0" height="26.2969" style="stroke:none;stroke-width:1;" width="109.9893" x="1610.1431" y="901.4841"/><text fill="#000000" font-family="sans-serif" font-size="14" lengthAdjust="spacing" textLength="4.4502" x="1615.1431" y="919.4792">&#160;</text><text fill="#000000" font-family="sans-serif" font-size="14" lengthAdjust="spacing" textLength="89.3662" x="1729.5826" y="919.4792">Core System</text><rect fill="#ADD8E6" height="26.2969" style="stroke:none;stroke-width:1;" width="109.9893" x="1610.1431" y="927.7809"/><text fill="#000000" font-family="sans-serif" font-size="14" lengthAdjust="spacing" textLength="4.4502" x="1615.1431" y="945.7761">&#160;</text><text fill="#000000" font-family="sans-serif" font-size="14" lengthAdjust="spacing" textLength="102.71" x="1729.5826" y="945.7761">AI Subsystems</text><rect fill="#90EE90" height="26.2969" style="stroke:none;stroke-width:1;" width="109.9893" x="1610.1431" y="954.0778"/><text fill="#000000" font-family="sans-serif" font-size="14" lengthAdjust="spacing" textLength="4.4502" x="1615.1431" y="972.0729">&#160;</text><text fill="#000000" font-family="sans-serif" font-size="14" lengthAdjust="spacing" textLength="55.2822" x="1729.5826" y="972.0729">Sensors</text><rect fill="#FFB6C1" height="26.2969" style="stroke:none;stroke-width:1;" width="109.9893" x="1610.1431" y="980.3747"/><text fill="#000000" font-family="sans-serif" font-size="14" lengthAdjust="spacing" textLength="4.4502" x="1615.1431" y="998.3698">&#160;</text><text fill="#000000" font-family="sans-serif" font-size="14" lengthAdjust="spacing" textLength="95.8193" x="1729.5826" y="998.3698">Motor Control</text><rect fill="#D3D3D3" height="26.2969" style="stroke:none;stroke-width:1;" width="109.9893" x="1610.1431" y="1006.6716"/><text fill="#000000" font-family="sans-serif" font-size="14" lengthAdjust="spacing" textLength="4.4502" x="1615.1431" y="1024.6667">&#160;</text><text fill="#000000" font-family="sans-serif" font-size="14" lengthAdjust="spacing" textLength="106.7773" x="1729.5826" y="1024.6667">Power Systems</text><rect fill="#E0FFFF" height="26.2969" style="stroke:none;stroke-width:1;" width="109.9893" x="1610.1431" y="1032.9684"/><text fill="#000000" font-family="sans-serif" font-size="14" lengthAdjust="spacing" textLength="4.4502" x="1615.1431" y="1050.9636">&#160;</text><text fill="#000000" font-family="sans-serif" font-size="14" lengthAdjust="spacing" textLength="110.3457" x="1729.5826" y="1050.9636">Communication</text><rect fill="#FFCC99" height="26.2969" style="stroke:none;stroke-width:1;" width="109.9893" x="1610.1431" y="1059.2653"/><text fill="#000000" font-family="sans-serif" font-size="14" lengthAdjust="spacing" textLength="4.4502" x="1615.1431" y="1077.2604">&#160;</text><text fill="#000000" font-family="sans-serif" font-size="14" lengthAdjust="spacing" textLength="99.0391" x="1729.5826" y="1077.2604">User Interface</text><rect fill="#D0D0D0" height="26.2969" style="stroke:none;stroke-width:1;" width="109.9893" x="1610.1431" y="1085.5622"/><text fill="#000000" font-family="sans-serif" font-size="14" lengthAdjust="spacing" textLength="4.4502" x="1615.1431" y="1103.5573">&#160;</text><text fill="#000000" font-family="sans-serif" font-size="14" lengthAdjust="spacing" textLength="122.2813" x="1729.5826" y="1103.5573">External Systems</text><rect fill="#E0E0FF" height="26.2969" style="stroke:none;stroke-width:1;" width="109.9893" x="1610.1431" y="1111.8591"/><text fill="#000000" font-family="sans-serif" font-size="14" lengthAdjust="spacing" textLength="4.4502" x="1615.1431" y="1129.8542">&#160;</text><text fill="#000000" font-family="sans-serif" font-size="14" lengthAdjust="spacing" textLength="103.4756" x="1729.5826" y="1129.8542">Cloud Services</text><line style="stroke:#000000;stroke-width:1;" x1="1610.1431" x2="1861.314" y1="875.1872" y2="875.1872"/><line style="stroke:#000000;stroke-width:1;" x1="1610.1431" x2="1861.314" y1="901.4841" y2="901.4841"/><line style="stroke:#000000;stroke-width:1;" x1="1610.1431" x2="1861.314" y1="927.7809" y2="927.7809"/><line style="stroke:#000000;stroke-width:1;" x1="1610.1431" x2="1861.314" y1="954.0778" y2="954.0778"/><line style="stroke:#000000;stroke-width:1;" x1="1610.1431" x2="1861.314" y1="980.3747" y2="980.3747"/><line style="stroke:#000000;stroke-width:1;" x1="1610.1431" x2="1861.314" y1="1006.6716" y2="1006.6716"/><line style="stroke:#000000;stroke-width:1;" x1="1610.1431" x2="1861.314" y1="1032.9684" y2="1032.9684"/><line style="stroke:#000000;stroke-width:1;" x1="1610.1431" x2="1861.314" y1="1059.2653" y2="1059.2653"/><line style="stroke:#000000;stroke-width:1;" x1="1610.1431" x2="1861.314" y1="1085.5622" y2="1085.5622"/><line style="stroke:#000000;stroke-width:1;" x1="1610.1431" x2="1861.314" y1="1111.8591" y2="1111.8591"/><line style="stroke:#000000;stroke-width:1;" x1="1610.1431" x2="1861.314" y1="1138.1559" y2="1138.1559"/><line style="stroke:#000000;stroke-width:1;" x1="1610.1431" x2="1610.1431" y1="875.1872" y2="1138.1559"/><line style="stroke:#000000;stroke-width:1;" x1="1720.1324" x2="1720.1324" y1="875.1872" y2="1138.1559"/><line style="stroke:#000000;stroke-width:1;" x1="1861.314" x2="1861.314" y1="875.1872" y2="1138.1559"/></g><!--SRC=[VLPDR-Cs4BthLmmSe7k9iRdqi8lj0ebZ9qRZn8sTtHP53hGqbeb8f41ITjMc_xqp92LBJhRmmTRCc-7ZqtpOILSWtDQbc0Y3yAWtsi6bINVIOUfgCerXNbO5bgYSS58h-2Rna3XTWTD0QATBoAGXD3cJv0CyMGGhAKPkPHf2b0wnYNsHgX96b93gijAAagvSGmmuNgYym1va8zANtEXQPHDTQ0C79jNpLoBBfChXvvwDJiAhaxWxcU_S7rWK-d2Ar2P34r0tHZH9Kb6io156dIGFgn48Irzmrai4_oG0VpwYACPhMIByYaPXySp8YJOuqSePNHHe67PBCBU3XLRIQSEKLsZsCaMFNpNMOHajDlctH-9o3ZzHlfpYv1uZqde-v0fyheeQ0vlxkoLCLIvLo7j7UjQKXbqJKhjsQEZbMNuXFLYmC6Xn1siZf6A2IrbXqML2OTWwuBP2PRLf1gHQMs1sOn1Le1OSCAlzwRVrvla87rvvWUbEA2gSOf2vPmx9brAzXDmBxMjiMGZbgOSmVy12xttX1Wfch-7uOcn4q1kvDgJk2O-bFf1S2w7eYLDu5i7OtauqWS2LS2HjqmFtEKmLchmPvAQtKTOgDiSer4nPnhoJHaJHxj4Tj7dnTt8K6wjBAUwrlNJ3fDHs1kQAc6n5YZuhcpeBdCrcaycdJr6qkd1olD0P2Tf1_05Fyq7QwL_aL16LcoFbra5NXRFh2_w4r9VBETm8XmVHFFU1d3OjT9sH0FwhBVcW09jQ2vnDBwONirbC-3VFeTX4BUIv2-Ay7qXygS1wsMcs18sqiicm6s4y_dhISF0PHhkGEnDEZ4uZld18sqiCfhR8QscTJFyd8FOPmVVIrYJVZw5jaJAuR7_JU2o5okpx8Q6cEA3o5MbflDO_mFOBXYDKgAf8Y9IRj9Due5liJHXU9XKb6W5Rn6mqW9oSJ50RMjwWu25Dv3eDWw9nfZ3KjLCdS8h7lO559IlVReeoTie56O-TpEZbzmMjePmApmlJ4o58sDOrGRbYQRAy3morIYXKgMagXrcaERpFqznVka8QL33_-32yHl362x1wlDj6IKTYU993thVED7H8U_yXejGP5b1Nn8Jw9qbucRNBM6_Vhg37zSFgCyne8FElZx_T_qx6gRArtqQ6rvZZDMRGKYtG0YVtbjvUQcZpyD3TrYeM1ghCxyutXxRJ762-U3g7YI-LSrZ8rEXgHnLsJgwrhjFTEQonhCZBVp2wXF0cOnoTG1jyp5AMtG8bsweKXafs9qmU364uPzIPHcvg_tVZoBN0d1zYRiE3ba9UV-bLFprSewKRLtwVlBB_It_dVttrmiRvCG3m4YOtBULLlGbJo0u0VXSIeksPlezN6Rby0RSBwYHOD0G85rozavrtXcVNsoij84nzyWuNHEiEavlSNIsU710cCMSV36roaw11rly0]--></g></svg>